<svg xmlns="http://www.w3.org/2000/svg" enable-background="new 0 0 24 24" height="24px" viewBox="0 0 24 24" width="24px">
  <path fill-rule="evenodd" clip-rule="evenodd" fill="currentColor" d="
    M12,2C8.13,2,5,5.13,5,9c0,1.74,0.5,3.37,1.41,4.84c0.95,1.54,2.2,2.86,3.16,4.4c0.47,0.75,0.81,1.45,1.17,2.26 C11,21.05,11.21,22,12,22c0.79,0,1-0.95,1.25-1.5c0.37-0.81,0.7-1.51,1.17-2.26c0.96-1.53,2.21-2.85,3.16-4.4 C18.5,12.37,19,10.74,19,9C19,5.13,15.87,2,12,2z
    M8.7,6 h1.2 v6 h-1.2 z
    M11.0,6 h2.8 c1.5,0 2.2,0.8 2.2,1.75 c0,0.95 -0.7,1.75 -2.2,1.75 h-1.6 v2.5 h-1.2 z
    M12.2,7.2 h1.1 c0.8,0 1.5,0.2 1.5,0.55 c0,0.35 -0.7,0.55 -1.5,0.55 h-1.1 z" />
</svg>
