<svg xmlns="http://www.w3.org/2000/svg" enable-background="new 0 0 24 24" height="24px" viewBox="0 0 24 24" width="24px" fill="#e3e3e3">
  <rect fill="none" height="24" width="24"/>
  <path d="M12,2C8.13,2,5,5.13,5,9c0,1.74,0.5,3.37,1.41,4.84c0.95,1.54,2.2,2.86,3.16,4.4c0.47,0.75,0.81,1.45,1.17,2.26 C11,21.05,11.21,22,12,22c0.79,0,1-0.95,1.25-1.5c0.37-0.81,0.7-1.51,1.17-2.26c0.96-1.53,2.21-2.85,3.16-4.4 C18.5,12.37,19,10.74,19,9C19,5.13,15.87,2,12,2z"/>
  
  <text x="12.5" y="9.5" font-family="Arial, sans-serif" font-size="9" font-weight="bold" fill="#424242" text-anchor="middle" dominant-baseline="central">IP</text>
</svg>
